<svg width="28" height="18" viewBox="0 0 28 18" fill="none" xmlns="http://www.w3.org/2000/svg">
<path d="M27.0156 0.75H0.984375C0.838281 0.75 0.71875 0.834375 0.71875 0.9375V2.4375C0.71875 2.54062 0.838281 2.625 0.984375 2.625H27.0156C27.1617 2.625 27.2812 2.54062 27.2812 2.4375V0.9375C27.2812 0.834375 27.1617 0.75 27.0156 0.75ZM27.0156 15.375H0.984375C0.838281 15.375 0.71875 15.4594 0.71875 15.5625V17.0625C0.71875 17.1656 0.838281 17.25 0.984375 17.25H27.0156C27.1617 17.25 27.2812 17.1656 27.2812 17.0625V15.5625C27.2812 15.4594 27.1617 15.375 27.0156 15.375ZM27.0156 8.0625H0.984375C0.838281 8.0625 0.71875 8.14687 0.71875 8.25V9.75C0.71875 9.85312 0.838281 9.9375 0.984375 9.9375H27.0156C27.1617 9.9375 27.2812 9.85312 27.2812 9.75V8.25C27.2812 8.14687 27.1617 8.0625 27.0156 8.0625Z" fill="white"/>
</svg>
