<svg width="25" height="24" viewBox="0 0 25 24" fill="none" xmlns="http://www.w3.org/2000/svg">
<path d="M11.2812 8.25H12.7812V15H11.2812V8.25Z" fill="#37609E"/>
<path d="M9.78125 1.5H14.2812V3H9.78125V1.5Z" fill="#37609E"/>
<path d="M21.0303 6.74886L19.9653 5.69136L18.2778 7.37886C16.8965 5.78364 14.9537 4.78194 12.853 4.5819C10.7523 4.38185 8.65531 4.99884 6.99769 6.30467C5.34008 7.6105 4.24931 9.50477 3.95199 11.5939C3.65468 13.683 4.17369 15.8064 5.4012 17.5228C6.6287 19.2393 8.47031 20.4168 10.5434 20.8107C12.6165 21.2046 14.7616 20.7847 16.5332 19.6382C18.3047 18.4917 19.5664 16.7067 20.0561 14.6541C20.5459 12.6015 20.2259 10.4392 19.1628 8.61636L21.0303 6.74886ZM12.0304 19.4989C10.6953 19.4989 9.39028 19.103 8.28025 18.3613C7.17022 17.6196 6.30506 16.5654 5.79416 15.332C5.28327 14.0986 5.1496 12.7414 5.41005 11.432C5.6705 10.1226 6.31337 8.9199 7.25738 7.97589C8.20138 7.03189 9.40412 6.38901 10.7135 6.12856C12.0229 5.86811 13.3801 6.00179 14.6135 6.51268C15.8469 7.02357 16.9011 7.88873 17.6428 8.99876C18.3845 10.1088 18.7803 11.4138 18.7803 12.7489C18.7803 14.5391 18.0692 16.256 16.8033 17.5218C15.5374 18.7877 13.8206 19.4989 12.0304 19.4989Z" fill="#37609E"/>
</svg>
