<svg width="15" height="14" viewBox="0 0 15 14" fill="none" xmlns="http://www.w3.org/2000/svg">
    <path d="M14.5001 5.49998H14.0002V2.49999C14.0002 2.36738 13.9475 2.24021 13.8538 2.14644C13.76 2.05267 13.6328 1.99999 13.5003 1.99999H1.50237C1.384 2.00192 1.26878 1.96177 1.17723 1.88669C1.08568 1.81161 1.02375 1.70647 1.00246 1.58999V1.40999C1.02375 1.29352 1.08568 1.18838 1.17723 1.1133C1.26878 1.03821 1.384 0.998065 1.50237 0.999996H13.2903C13.4229 0.999996 13.55 0.947318 13.6438 0.85355C13.7375 0.759782 13.7902 0.632606 13.7902 0.499998C13.7902 0.36739 13.7375 0.240214 13.6438 0.146446C13.55 0.0526783 13.4229 0 13.2903 0H1.50237C1.10461 0 0.72315 0.158035 0.441894 0.439338C0.160639 0.720642 0.00263166 1.10217 0.00263166 1.49999C-0.000877219 1.55994 -0.000877219 1.62005 0.00263166 1.67999V11.965C0.00459395 12.2342 0.0595548 12.5004 0.164376 12.7483C0.269197 12.9963 0.421825 13.2212 0.613546 13.4101C0.805267 13.5991 1.03233 13.7485 1.28176 13.8497C1.53119 13.9509 1.7981 14.0019 2.06727 13.9999H13.5003C13.6328 13.9999 13.76 13.9473 13.8538 13.8535C13.9475 13.7597 14.0002 13.6326 14.0002 13.4999V10.5H14.5001C14.6327 10.5 14.7598 10.4473 14.8536 10.3535C14.9473 10.2597 15 10.1326 15 9.99996V5.99998C15 5.86737 14.9473 5.74019 14.8536 5.64642C14.7598 5.55266 14.6327 5.49998 14.5001 5.49998ZM13.0004 12.9999H2.06727C1.78922 13.0026 1.52135 12.8954 1.32195 12.7016C1.12254 12.5078 1.00771 12.243 1.00246 11.965V2.93999C1.16473 2.98702 1.33358 3.00729 1.50237 2.99999H13.0004V5.49998H9.50097C8.83804 5.49998 8.20227 5.76337 7.73351 6.23221C7.26475 6.70105 7.0014 7.33693 7.0014 7.99997C7.0014 8.66301 7.26475 9.29889 7.73351 9.76773C8.20227 10.2366 8.83804 10.5 9.50097 10.5H13.0004V12.9999ZM14.0002 9.49996H9.50097C9.10321 9.49996 8.72175 9.34193 8.44049 9.06063C8.15924 8.77932 8.00123 8.39779 8.00123 7.99997C8.00123 7.60215 8.15924 7.22062 8.44049 6.93931C8.72175 6.65801 9.10321 6.49997 9.50097 6.49997H14.0002V9.49996Z" fill="white" />
</svg>
