<svg width="16" height="16" viewBox="0 0 16 16" fill="none" xmlns="http://www.w3.org/2000/svg">
<path d="M14 15.0008H2C1.60218 15.0008 1.22064 14.8428 0.93934 14.5614C0.658035 14.2801 0.5 13.8986 0.5 13.5008V5.28754C0.512468 5.03962 0.585334 4.79851 0.712259 4.58518C0.839183 4.37186 1.01632 4.19278 1.22825 4.06354L7.22825 0.46354C7.46129 0.323808 7.72791 0.25 7.99963 0.25C8.27135 0.25 8.53796 0.323808 8.771 0.46354L14.771 4.06354C15.2218 4.33579 15.4985 4.82329 15.5 5.34979V13.5008C15.5 13.8986 15.342 14.2801 15.0607 14.5614C14.7794 14.8428 14.3978 15.0008 14 15.0008ZM2 5.90179V13.5008H14V5.90179L8 9.90154L2 5.90179ZM8 1.74979L2.987 4.75729L8 8.09929L13.0123 4.75729L8 1.74979Z" fill="white" stroke="white" stroke-width="0.5"/>
</svg>
