<svg width="16" height="24" viewBox="0 0 16 24" fill="none" xmlns="http://www.w3.org/2000/svg">
<path d="M12.5312 1.5C12.9291 1.5 13.3106 1.65804 13.5919 1.93934C13.8732 2.22064 14.0312 2.60218 14.0312 3V21C14.0312 21.3978 13.8732 21.7794 13.5919 22.0607C13.3106 22.342 12.9291 22.5 12.5312 22.5H3.53125C3.13343 22.5 2.75189 22.342 2.47059 22.0607C2.18929 21.7794 2.03125 21.3978 2.03125 21V3C2.03125 2.60218 2.18929 2.22064 2.47059 1.93934C2.75189 1.65804 3.13343 1.5 3.53125 1.5H12.5312ZM3.53125 0C2.7356 0 1.97254 0.316071 1.40993 0.87868C0.84732 1.44129 0.53125 2.20435 0.53125 3V21C0.53125 21.7956 0.84732 22.5587 1.40993 23.1213C1.97254 23.6839 2.7356 24 3.53125 24H12.5312C13.3269 24 14.09 23.6839 14.6526 23.1213C15.2152 22.5587 15.5312 21.7956 15.5312 21V3C15.5312 2.20435 15.2152 1.44129 14.6526 0.87868C14.09 0.316071 13.3269 0 12.5312 0L3.53125 0Z" fill="#37609E"/>
</svg>
