<svg width="22" height="18" viewBox="0 0 22 18" fill="none" xmlns="http://www.w3.org/2000/svg">
<path d="M21.4591 16.807L20.0411 11.8125V0.9375C20.0411 0.522656 19.7059 0.1875 19.2911 0.1875H2.79109C2.37625 0.1875 2.04109 0.522656 2.04109 0.9375V11.8125L0.623122 16.807C0.447341 17.2969 0.808278 17.8125 1.32859 17.8125H20.7536C21.2739 17.8125 21.6348 17.2969 21.4591 16.807ZM3.72859 1.875H18.3536V11.1328H3.72859V1.875ZM9.07937 16.125L9.26922 15.2578H12.7919L12.9817 16.125H9.07937ZM14.3294 16.125L13.8817 14.093C13.863 14.0062 13.7856 13.9453 13.6989 13.9453H8.36453C8.27547 13.9453 8.20047 14.0062 8.18172 14.093L7.73406 16.125H2.57078L3.56218 12.6328H18.52L19.5114 16.125H14.3294Z" fill="#37609E"/>
</svg>
