<svg width="25" height="24" viewBox="0 0 25 24" fill="none" xmlns="http://www.w3.org/2000/svg">
<path d="M12.0334 18L7.46593 11.55C6.71831 10.6673 6.23686 9.59037 6.07764 8.44462C5.91842 7.29887 6.08799 6.13147 6.56661 5.07837C7.04522 4.02527 7.81317 3.12981 8.78102 2.49629C9.74887 1.86277 10.8768 1.51726 12.0334 1.5C13.6367 1.51584 15.1684 2.16645 16.293 3.30931C17.4176 4.45218 18.0434 5.99415 18.0334 7.5975C18.034 8.9962 17.5579 10.3533 16.6834 11.445L12.0334 18ZM12.0334 3C10.8273 3.01385 9.676 3.50578 8.83228 4.36778C7.98857 5.22977 7.52142 6.39137 7.53343 7.5975C7.53845 8.69837 7.93451 9.76163 8.65093 10.5975L12.0334 15.39L15.5059 10.5C16.166 9.67608 16.5281 8.6532 16.5334 7.5975C16.5454 6.39137 16.0783 5.22977 15.2346 4.36778C14.3909 3.50578 13.2395 3.01385 12.0334 3Z" fill="#37609E"/>
<path d="M12.0312 8.25C12.8597 8.25 13.5312 7.57843 13.5312 6.75C13.5312 5.92157 12.8597 5.25 12.0312 5.25C11.2028 5.25 10.5312 5.92157 10.5312 6.75C10.5312 7.57843 11.2028 8.25 12.0312 8.25Z" fill="#37609E"/>
<path d="M21.0312 9H19.5312V10.5H21.0312V21H3.03125V10.5H4.53125V9H3.03125C2.63343 9 2.25189 9.15804 1.97059 9.43934C1.68929 9.72064 1.53125 10.1022 1.53125 10.5V21C1.53125 21.3978 1.68929 21.7794 1.97059 22.0607C2.25189 22.342 2.63343 22.5 3.03125 22.5H21.0312C21.4291 22.5 21.8106 22.342 22.0919 22.0607C22.3732 21.7794 22.5312 21.3978 22.5312 21V10.5C22.5312 10.1022 22.3732 9.72064 22.0919 9.43934C21.8106 9.15804 21.4291 9 21.0312 9Z" fill="#37609E"/>
</svg>
