<svg width="24" height="24" viewBox="0 0 24 24" fill="none" xmlns="http://www.w3.org/2000/svg">
<path d="M20.0102 8.71141V4.00141H15.3102L11.9702 0.691406L8.68016 4.00141H3.97016V8.71141L0.660156 12.0014L3.97016 15.3414V20.0414H8.68016L11.9702 23.3514L15.3102 20.0414H20.0102V15.3414L23.3202 12.0014L20.0102 8.71141ZM8.80016 7.05141C9.78016 7.05141 10.5702 7.84141 10.5702 8.83141C10.5702 9.30084 10.3837 9.75105 10.0517 10.083C9.7198 10.4149 9.26959 10.6014 8.80016 10.6014C7.81016 10.6014 7.02016 9.81141 7.02016 8.83141C7.02016 7.84141 7.81016 7.05141 8.80016 7.05141ZM15.1902 17.0014C14.2102 17.0014 13.4202 16.2014 13.4202 15.2214C13.4202 14.752 13.6066 14.3018 13.9386 13.9698C14.2705 13.6379 14.7207 13.4514 15.1902 13.4514C16.1702 13.4514 16.9702 14.2414 16.9702 15.2214C16.9702 15.6935 16.7826 16.1462 16.4488 16.4801C16.115 16.8139 15.6622 17.0014 15.1902 17.0014ZM8.47016 17.0314L6.97016 15.5314L15.5002 7.00141L17.0002 8.50141L8.47016 17.0314Z" fill="#37609E"/>
</svg>
