<svg width="19" height="20" viewBox="0 0 19 20" fill="none" xmlns="http://www.w3.org/2000/svg">
<path d="M18.85 18.0273L12.7633 11.9406C13.7078 10.7195 14.2188 9.22656 14.2188 7.65625C14.2188 5.77656 13.4852 4.01406 12.1586 2.68516C10.832 1.35625 9.06484 0.625 7.1875 0.625C5.31016 0.625 3.54297 1.35859 2.21641 2.68516C0.8875 4.01172 0.15625 5.77656 0.15625 7.65625C0.15625 9.53359 0.889844 11.3008 2.21641 12.6273C3.54297 13.9562 5.30781 14.6875 7.1875 14.6875C8.75781 14.6875 10.2484 14.1766 11.4695 13.2344L17.5563 19.3187C17.5741 19.3366 17.5953 19.3508 17.6186 19.3604C17.6419 19.3701 17.6669 19.3751 17.6922 19.3751C17.7174 19.3751 17.7424 19.3701 17.7658 19.3604C17.7891 19.3508 17.8103 19.3366 17.8281 19.3187L18.85 18.2992C18.8679 18.2814 18.882 18.2602 18.8917 18.2369C18.9014 18.2135 18.9063 18.1885 18.9063 18.1633C18.9063 18.138 18.9014 18.113 18.8917 18.0897C18.882 18.0664 18.8679 18.0452 18.85 18.0273ZM10.9 11.3688C9.90625 12.3602 8.58906 12.9062 7.1875 12.9062C5.78594 12.9062 4.46875 12.3602 3.475 11.3688C2.48359 10.375 1.9375 9.05781 1.9375 7.65625C1.9375 6.25469 2.48359 4.93516 3.475 3.94375C4.46875 2.95234 5.78594 2.40625 7.1875 2.40625C8.58906 2.40625 9.90859 2.95 10.9 3.94375C11.8914 4.9375 12.4375 6.25469 12.4375 7.65625C12.4375 9.05781 11.8914 10.3773 10.9 11.3688Z" fill="#37609E"/>
</svg>
