<svg width="0" height="0" class="hidden">
    <symbol fill="none" xmlns="http://www.w3.org/2000/svg" viewBox="0 0 14 18" id="adres">
        <path d="M7 9.75C8.24264 9.75 9.25 8.74264 9.25 7.5C9.25 6.25736 8.24264 5.25 7 5.25C5.75736 5.25 4.75 6.25736 4.75 7.5C4.75 8.74264 5.75736 9.75 7 9.75Z" stroke="white" stroke-width="2" stroke-linecap="round" stroke-linejoin="round" />
        <path d="M7 1.5C5.4087 1.5 3.88258 2.13214 2.75736 3.25736C1.63214 4.38258 1 5.9087 1 7.5C1 8.919 1.3015 9.8475 2.125 10.875L7 16.5L11.875 10.875C12.6985 9.8475 13 8.919 13 7.5C13 5.9087 12.3679 4.38258 11.2426 3.25736C10.1174 2.13214 8.5913 1.5 7 1.5V1.5Z" stroke="white" stroke-width="2" stroke-linecap="round" stroke-linejoin="round" />
    </symbol>
    <symbol fill="none" xmlns="http://www.w3.org/2000/svg" viewBox="0 0 14 18" id="adres2">
        <path d="M7 9.75C8.24264 9.75 9.25 8.74264 9.25 7.5C9.25 6.25736 8.24264 5.25 7 5.25C5.75736 5.25 4.75 6.25736 4.75 7.5C4.75 8.74264 5.75736 9.75 7 9.75Z" stroke-width="2" stroke-linecap="round" stroke-linejoin="round" />
        <path d="M7 1.5C5.4087 1.5 3.88258 2.13214 2.75736 3.25736C1.63214 4.38258 1 5.9087 1 7.5C1 8.919 1.3015 9.8475 2.125 10.875L7 16.5L11.875 10.875C12.6985 9.8475 13 8.919 13 7.5C13 5.9087 12.3679 4.38258 11.2426 3.25736C10.1174 2.13214 8.5913 1.5 7 1.5V1.5Z" stroke-width="2" stroke-linecap="round" stroke-linejoin="round" />
    </symbol>
    <symbol fill="none" xmlns="http://www.w3.org/2000/svg" viewBox="0 0 28 18" id="bar">
        <path d="M27.016.75H.984C.838.75.72.834.72.938v1.5c0 .103.12.187.265.187h26.032c.146 0 .265-.084.265-.188v-1.5c0-.103-.12-.187-.265-.187zm0 14.625H.984c-.146 0-.265.084-.265.188v1.5c0 .103.12.187.265.187h26.032c.146 0 .265-.084.265-.188v-1.5c0-.103-.12-.187-.265-.187zm0-7.313H.984c-.146 0-.265.085-.265.188v1.5c0 .103.12.188.265.188h26.032c.146 0 .265-.085.265-.188v-1.5c0-.103-.12-.188-.265-.188z" fill="#fff" ></path>
    </symbol>
    <symbol fill="none" xmlns="http://www.w3.org/2000/svg" viewBox="0 0 16 16" id="close">
        <path d="M16 1.61143L14.3886 0L8 6.38857L1.61143 0L0 1.61143L6.38857 8L0 14.3886L1.61143 16L8 9.61143L14.3886 16L16 14.3886L9.61143 8L16 1.61143Z" fill="white" />
    </symbol>
    <symbol fill="none" xmlns="http://www.w3.org/2000/svg" viewBox="0 0 25 24" id="clock">
        <path d="M11.281 8.25h1.5V15h-1.5V8.25zm-1.5-6.75h4.5V3h-4.5V1.5z" fill="#37609E"></path>
        <path d="M21.03 6.749L19.965 5.69l-1.687 1.69a8.205 8.205 0 10.885 1.237L21.03 6.75zm-9 12.75a6.75 6.75 0 110-13.5 6.75 6.75 0 010 13.5z" fill="#37609E"></path>
    </symbol>
    <symbol fill="none" xmlns="http://www.w3.org/2000/svg" viewBox="0 0 15 14" id="lk">
        <path d="M14.5 5.5H14v-3a.5.5 0 00-.5-.5H1.502a.5.5 0 01-.5-.41v-.18a.5.5 0 01.5-.41H13.29a.5.5 0 000-1H1.502a1.5 1.5 0 00-1.5 1.5 1.54 1.54 0 000 .18v10.285A2.05 2.05 0 002.068 14H13.5a.5.5 0 00.5-.5v-3h.5a.5.5 0 00.5-.5V6a.5.5 0 00-.5-.5zM13 13H2.067a1.055 1.055 0 01-1.065-1.035V2.94c.163.047.332.067.5.06H13v2.5H9.501a2.5 2.5 0 000 5h3.5V13zm1-3.5H9.501a1.5 1.5 0 010-3h4.5v3z" fill="#fff"></path>
    </symbol>
    <symbol fill="none" xmlns="http://www.w3.org/2000/svg" viewBox="0 0 13 18" id="next">
        <path d="M.887 15.885L7.757 9 .887 2.115 3.002 0l9 9-9 9-2.115-2.115z"></path>
    </symbol>
    <symbol fill="none" xmlns="http://www.w3.org/2000/svg" viewBox="0 0 16 24" id="payment">
        <path d="M12.531 1.5a1.5 1.5 0 011.5 1.5v18a1.5 1.5 0 01-1.5 1.5h-9a1.5 1.5 0 01-1.5-1.5V3a1.5 1.5 0 011.5-1.5h9zm-9-1.5a3 3 0 00-3 3v18a3 3 0 003 3h9a3 3 0 003-3V3a3 3 0 00-3-3h-9z" fill="#37609E"></path>
    </symbol>
    <symbol fill="none" xmlns="http://www.w3.org/2000/svg" viewBox="0 0 22 18" id="pc">
        <path d="M21.46 16.807l-1.419-4.994V.937a.75.75 0 00-.75-.75h-16.5a.75.75 0 00-.75.75v10.876L.623 16.806a.75.75 0 00.706 1.006h19.425a.75.75 0 00.705-1.006zM3.728 1.875h14.625v9.258H3.729V1.875zm5.35 14.25l.19-.867h3.523l.19.867H9.079zm5.25 0l-.447-2.032a.188.188 0 00-.183-.148H8.365a.185.185 0 00-.183.148l-.448 2.032H2.571l.991-3.492H18.52l.991 3.492H14.33z" fill="#37609E"></path>
    </symbol>
    <symbol fill="none" xmlns="http://www.w3.org/2000/svg" viewBox="0 0 18 18" id="phone">
        <path d="M16.5 12.69v2.25a1.502 1.502 0 01-1.635 1.5 14.843 14.843 0 01-6.472-2.302 14.625 14.625 0 01-4.5-4.5A14.843 14.843 0 011.59 3.135 1.5 1.5 0 013.083 1.5h2.25a1.5 1.5 0 011.5 1.29 9.63 9.63 0 00.525 2.108A1.5 1.5 0 017.02 6.48l-.952.953a12 12 0 004.5 4.5l.952-.953a1.5 1.5 0 011.583-.337c.68.253 1.387.43 2.107.525a1.5 1.5 0 011.29 1.522z" stroke="#fff" stroke-width="2" stroke-linecap="round" stroke-linejoin="round"></path>
    </symbol>
    <symbol fill="none" xmlns="http://www.w3.org/2000/svg" viewBox="0 0 25 24" id="place">
        <path d="M12.033 18l-4.567-6.45A6.105 6.105 0 0112.033 1.5a6.06 6.06 0 016 6.098 6.15 6.15 0 01-1.35 3.847L12.033 18zm0-15a4.552 4.552 0 00-4.5 4.598 4.642 4.642 0 001.118 3l3.382 4.792 3.473-4.89a4.68 4.68 0 001.027-2.902A4.553 4.553 0 0012.033 3z" fill="#37609E"></path>
        <path d="M12.031 8.25a1.5 1.5 0 100-3 1.5 1.5 0 000 3zm9 .75h-1.5v1.5h1.5V21h-18V10.5h1.5V9h-1.5a1.5 1.5 0 00-1.5 1.5V21a1.5 1.5 0 001.5 1.5h18a1.5 1.5 0 001.5-1.5V10.5a1.5 1.5 0 00-1.5-1.5z" fill="#37609E"></path>
    </symbol>
    <symbol fill="none" xmlns="http://www.w3.org/2000/svg" viewBox="0 0 25 25" id="plus">
        <path d="M12.5 23.5v-11m0 0v-11m0 11h11m-11 0h-11" stroke="#1A1A1A" stroke-width="2" stroke-linecap="round"></path>
    </symbol>
    <symbol fill="none" xmlns="http://www.w3.org/2000/svg" viewBox="0 0 13 18" id="prev">
        <path d="M12.113 15.885L5.243 9l6.87-6.885L9.998 0l-9 9 9 9 2.115-2.115z"></path>
    </symbol>
    <symbol fill="none" xmlns="http://www.w3.org/2000/svg" viewBox="0 0 24 24" id="salle">
        <path d="M20.01 8.711v-4.71h-4.7L11.97.691l-3.29 3.31H3.97v4.71l-3.31 3.29 3.31 3.34v4.7h4.71l3.29 3.31 3.34-3.31h4.7v-4.7l3.31-3.34-3.31-3.29zM8.8 7.051c.98 0 1.77.79 1.77 1.78a1.77 1.77 0 01-1.77 1.77c-.99 0-1.78-.79-1.78-1.77 0-.99.79-1.78 1.78-1.78zm6.39 9.95a1.775 1.775 0 11.011-3.55 1.775 1.775 0 01-.01 3.55zm-6.72.03l-1.5-1.5 8.53-8.53 1.5 1.5-8.53 8.53z" fill="#37609E"></path>
    </symbol>
    <symbol fill="none" xmlns="http://www.w3.org/2000/svg" viewBox="0 0 19 20" id="search">
        <path d="M18.85 18.027l-6.087-6.086a6.968 6.968 0 001.456-4.285c0-1.88-.734-3.642-2.06-4.97A6.98 6.98 0 007.187.624a6.99 6.99 0 00-4.97 2.06 6.975 6.975 0 00-2.06 4.971c0 1.878.733 3.645 2.06 4.971a6.975 6.975 0 004.97 2.06 6.97 6.97 0 004.282-1.453l6.087 6.085a.19.19 0 00.21.041.19.19 0 00.062-.041l1.022-1.02a.192.192 0 000-.272zM10.9 11.37a5.222 5.222 0 01-3.713 1.537 5.222 5.222 0 01-3.712-1.537 5.222 5.222 0 01-1.538-3.713 5.22 5.22 0 011.538-3.712 5.222 5.222 0 013.712-1.538c1.402 0 2.722.544 3.713 1.538a5.222 5.222 0 011.537 3.712A5.218 5.218 0 0110.9 11.37z" fill="#37609E"></path>
    </symbol>
    <symbol fill="none" xmlns="http://www.w3.org/2000/svg" viewBox="0 0 20 20" id="whatsap">
        <path fill-rule="evenodd" clip-rule="evenodd" d="M17.086 2.907A9.896 9.896 0 0013.856.75 9.934 9.934 0 0010.043 0C4.554 0 .085 4.446.083 9.91a9.86 9.86 0 001.33 4.955L0 20l5.279-1.379a10 10 0 004.759 1.207h.004c5.488 0 9.956-4.446 9.958-9.91a9.816 9.816 0 00-2.914-7.011zm-7.044 15.248h-.003a8.29 8.29 0 01-4.213-1.149l-.302-.179-3.132.818.835-3.04-.196-.31A8.194 8.194 0 011.764 9.91c.002-4.542 3.715-8.237 8.28-8.237a8.257 8.257 0 015.852 2.415 8.158 8.158 0 012.421 5.828c-.002 4.542-3.715 8.238-8.276 8.238zm4.54-6.17c-.25-.125-1.472-.723-1.7-.806-.228-.083-.393-.124-.56.124-.166.247-.643.804-.788.97-.145.166-.29.186-.539.062-.248-.124-1.05-.385-2.001-1.229-.74-.657-1.24-1.467-1.384-1.715-.146-.249-.016-.382.11-.506.111-.11.248-.29.372-.434.124-.145.165-.247.249-.413.083-.165.042-.31-.022-.434-.062-.124-.56-1.343-.767-1.839-.2-.48-.406-.416-.56-.423-.158-.006-.316-.01-.475-.009a.92.92 0 00-.665.31c-.228.248-.87.846-.87 2.065 0 1.219.892 2.397 1.016 2.563.124.165 1.755 2.666 4.25 3.739.595.255 1.059.407 1.42.522.595.189 1.137.161 1.567.098.478-.07 1.472-.598 1.679-1.177.207-.578.207-1.074.145-1.178-.062-.103-.23-.166-.477-.29z" fill="#fff"></path>
    </symbol>
</svg>
<svg class="icon">
    <use xlink:href="#adres"></use>
</svg>
<svg class="icon">
    <use xlink:href="#bar"></use>
</svg>
<svg class="icon">
    <use xlink:href="#clock"></use>
</svg>
<svg class="icon">
    <use xlink:href="#lk"></use>
</svg>
<svg class="icon">
    <use xlink:href="#next"></use>
</svg>
<svg class="icon">
    <use xlink:href="#payment"></use>
</svg>
<svg class="icon">
    <use xlink:href="#logo-footer"></use>
</svg>
<svg class="icon">
    <use xlink:href="#pc"></use>
</svg>
<svg class="icon">
    <use xlink:href="#phone"></use>
</svg>
<svg class="icon">
    <use xlink:href="#place"></use>
</svg>
<svg class="icon">
    <use xlink:href="#plus"></use>
</svg>
<svg class="icon">
    <use xlink:href="#prev"></use>
</svg>
<svg class="icon">
    <use xlink:href="#salle"></use>
</svg>
<svg class="icon">
    <use xlink:href="#search"></use>
</svg>
<svg class="icon">
    <use xlink:href="#whatsap"></use>
</svg>
