<svg width="20" height="20" viewBox="0 0 20 20" fill="none" xmlns="http://www.w3.org/2000/svg">
<path fill-rule="evenodd" clip-rule="evenodd" d="M13.3327 7.49935C13.3327 8.3834 12.9815 9.23125 12.3564 9.85637C11.7313 10.4815 10.8834 10.8327 9.99935 10.8327C9.11529 10.8327 8.26745 10.4815 7.64233 9.85637C7.0172 9.23125 6.66602 8.3834 6.66602 7.49935C6.66602 6.61529 7.0172 5.76745 7.64233 5.14233C8.26745 4.5172 9.11529 4.16602 9.99935 4.16602C10.8834 4.16602 11.7313 4.5172 12.3564 5.14233C12.9815 5.76745 13.3327 6.61529 13.3327 7.49935ZM11.666 7.49935C11.666 7.94138 11.4904 8.3653 11.1779 8.67786C10.8653 8.99042 10.4414 9.16602 9.99935 9.16602C9.55732 9.16602 9.1334 8.99042 8.82084 8.67786C8.50828 8.3653 8.33268 7.94138 8.33268 7.49935C8.33268 7.05732 8.50828 6.6334 8.82084 6.32084C9.1334 6.00828 9.55732 5.83268 9.99935 5.83268C10.4414 5.83268 10.8653 6.00828 11.1779 6.32084C11.4904 6.6334 11.666 7.05732 11.666 7.49935Z" fill="white" stroke="#37507E" stroke-width="0.5"/>
<path fill-rule="evenodd" clip-rule="evenodd" d="M9.99967 0.833008C4.93717 0.833008 0.833008 4.93717 0.833008 9.99967C0.833008 15.0622 4.93717 19.1663 9.99967 19.1663C15.0622 19.1663 19.1663 15.0622 19.1663 9.99967C19.1663 4.93717 15.0622 0.833008 9.99967 0.833008ZM2.49967 9.99967C2.49967 11.7413 3.09384 13.3447 4.08967 14.618C4.78903 13.6996 5.69126 12.9553 6.72587 12.4433C7.76048 11.9312 8.89946 11.6653 10.0538 11.6663C11.1933 11.6653 12.3179 11.9243 13.3421 12.4237C14.3663 12.923 15.263 13.6496 15.9638 14.548C16.6859 13.601 17.172 12.4957 17.3821 11.3235C17.5921 10.1513 17.52 8.94595 17.1718 7.80716C16.8235 6.66837 16.209 5.62888 15.3792 4.77471C14.5495 3.92053 13.5282 3.27622 12.4 2.8951C11.2718 2.51397 10.069 2.40698 8.89122 2.58299C7.71344 2.75899 6.5945 3.21292 5.62698 3.90722C4.65946 4.60152 3.87118 5.51623 3.32737 6.57567C2.78355 7.63511 2.49982 8.80881 2.49967 9.99967ZM9.99967 17.4997C8.27797 17.5023 6.60823 16.91 5.27301 15.823C5.81045 15.0536 6.52579 14.4254 7.35817 13.9919C8.19055 13.5584 9.11533 13.3323 10.0538 13.333C10.9806 13.3323 11.8942 13.5527 12.7188 13.9759C13.5433 14.3991 14.255 15.0129 14.7947 15.7663C13.4491 16.8886 11.7518 17.5021 9.99967 17.4997Z" fill="white" stroke="#37507E" stroke-width="0.5"/>
</svg>
